<svg version="1.1" viewBox="0.0 0.0 768.0 384.0" fill="none" stroke="none" stroke-linecap="square" stroke-miterlimit="10" xmlns:xlink="http://www.w3.org/1999/xlink" xmlns="http://www.w3.org/2000/svg"><clipPath id="p.0"><path d="m0 0l768.0 0l0 384.0l-768.0 0l0 -384.0z" clip-rule="nonzero"/></clipPath><g clip-path="url(#p.0)"><path fill="#000000" fill-opacity="0.0" d="m0 0l768.0 0l0 384.0l-768.0 0z" fill-rule="evenodd"/><path fill="#ddcf00" d="m92.289024 193.40372l0 0c0 -41.747513 33.84304 -75.59055 75.59055 -75.59055l0 0c20.047867 0 39.274612 7.9639816 53.450592 22.139961c14.17598 14.17598 22.139954 33.402725 22.139954 53.450592l0 0c0 41.747513 -33.843033 75.590546 -75.590546 75.590546l0 0c-41.747513 0 -75.59055 -33.843033 -75.59055 -75.590546z" fill-rule="evenodd"/><path stroke="#000000" stroke-width="2.0" stroke-linejoin="round" stroke-linecap="butt" d="m92.289024 193.40372l0 0c0 -41.747513 33.84304 -75.59055 75.59055 -75.59055l0 0c20.047867 0 39.274612 7.9639816 53.450592 22.139961c14.17598 14.17598 22.139954 33.402725 22.139954 53.450592l0 0c0 41.747513 -33.843033 75.590546 -75.590546 75.590546l0 0c-41.747513 0 -75.59055 -33.843033 -75.59055 -75.590546z" fill-rule="evenodd"/><path fill="#000000" d="m128.53908 206.10559q-3.3281174 0 -5.7343674 -1.6875q-2.40625 -1.6875 -3.40625 -4.59375l3.84375 -1.421875q0.765625 1.703125 2.1875 2.734375q1.421875 1.015625 3.2499924 1.015625q1.90625 0 3.03125 -0.859375q1.125 -0.875 1.125 -2.5q0 -0.671875 -0.3125 -1.234375q-0.3125 -0.578125 -0.71875 -0.953125q-0.390625 -0.390625 -1.1875 -0.765625q-0.796875 -0.375 -1.359375 -0.59375q-0.546875 -0.234375 -1.6093674 -0.578125q-1.390625 -0.484375 -2.140625 -0.765625q-0.734375 -0.28125 -1.90625 -0.921875q-1.15625 -0.640625 -1.765625 -1.296875q-0.609375 -0.65625 -1.078125 -1.75q-0.46875 -1.09375 -0.46875 -2.40625q0 -2.78125 2.15625 -4.640625q2.15625 -1.875 5.8281174 -1.875q3.046875 0 5.046875 1.4375q2.015625 1.4375 2.703125 3.75l-3.734375 1.25q-1.109375 -2.484375 -4.2968674 -2.484375q-1.625 0 -2.546875 0.671875q-0.921875 0.671875 -0.921875 1.921875q0 0.828125 0.703125 1.5q0.71875 0.65625 1.53125 0.984375q0.8125 0.328125 2.4062424 0.84375q1.046875 0.375 1.578125 0.578125q0.546875 0.1875 1.515625 0.640625q0.96875 0.4375 1.515625 0.8125q0.5625 0.359375 1.265625 0.984375q0.71875 0.625 1.09375 1.296875q0.390625 0.671875 0.65625 1.59375q0.28125 0.921875 0.28125 2.0q0 3.390625 -2.40625 5.359375q-2.40625 1.953125 -6.125 1.953125zm23.81221 -0.421875l0 -1.703125q-1.65625 2.125 -4.640625 2.125q-2.78125 0 -4.546875 -1.75q-1.765625 -1.75 -1.765625 -5.53125l0 -10.84375l4.0625 0l0 10.109375q0 4.125 3.328125 4.125q3.5625 0 3.5625 -4.046875l0 -10.1875l4.0625 0l0 17.703125l-4.0625 0zm20.203201 0l0 -10.15625q0 -4.125 -3.28125 -4.125q-3.609375 0 -3.609375 4.0625l0 10.21875l-4.0625 0l0 -17.703125l4.0625 0l0 1.65625q1.734375 -2.078125 4.671875 -2.078125q2.78125 0 4.53125 1.734375q1.75 1.734375 1.75 5.515625l0 10.875l-4.0625 0zm20.031326 0l0 -10.15625q0 -4.125 -3.28125 -4.125q-3.609375 0 -3.609375 4.0625l0 10.21875l-4.0625 0l0 -17.703125l4.0625 0l0 1.65625q1.734375 -2.078125 4.671875 -2.078125q2.78125 0 4.53125 1.734375q1.75 1.734375 1.75 5.515625l0 10.875l-4.0625 0zm10.919037 6.71875l2.734375 -7.0l-6.65625 -17.421875l4.09375 0l4.125 10.875q0.3125 0.765625 0.515625 1.59375q0.171875 -0.765625 0.484375 -1.59375l4.171875 -10.875l4.078125 0l-9.359375 24.421875l-4.1875 0z" fill-rule="nonzero"/><path fill="#3366aa" d="m544.84247 193.40372l0 0c0 -41.747513 33.84308 -75.59055 75.590576 -75.59055l0 0c20.047852 0 39.274597 7.9639816 53.45056 22.139961c14.175964 14.17598 22.139954 33.402725 22.139954 53.450592l0 0c0 41.747513 -33.843018 75.590546 -75.590515 75.590546l0 0c-41.747498 0 -75.590576 -33.843033 -75.590576 -75.590546z" fill-rule="evenodd"/><path stroke="#000000" stroke-width="2.0" stroke-linejoin="round" stroke-linecap="butt" d="m544.84247 193.40372l0 0c0 -41.747513 33.84308 -75.59055 75.590576 -75.59055l0 0c20.047852 0 39.274597 7.9639816 53.45056 22.139961c14.175964 14.17598 22.139954 33.402725 22.139954 53.450592l0 0c0 41.747513 -33.843018 75.590546 -75.590515 75.590546l0 0c-41.747498 0 -75.590576 -33.843033 -75.590576 -75.590546z" fill-rule="evenodd"/><path fill="#ffffff" d="m578.3158 205.68372l0 -24.265625l10.734375 0q4.1875 0 6.078125 2.09375q1.890625 2.078125 1.890625 5.296875q0 2.25 -1.28125 4.234375q-1.28125 1.96875 -3.703125 2.6875l4.84375 9.953125l-4.671875 0l-4.671875 -9.5l-5.0625 0l0 9.5l-4.15625 0zm4.15625 -13.453125l6.65625 0q1.859375 0 2.71875 -0.96875q0.875 -0.96875 0.875 -2.453125q0 -1.453125 -0.828125 -2.4375q-0.828125 -1.0 -2.765625 -1.0l-6.65625 0l0 6.859375zm28.62439 13.453125l0 -1.421875q-1.765625 1.84375 -4.71875 1.84375q-2.84375 0 -4.625 -1.546875q-1.78125 -1.546875 -1.78125 -4.34375q0 -2.890625 2.015625 -4.375q2.03125 -1.484375 4.90625 -1.484375q2.53125 0 4.203125 0.9375l0 -0.9375q0 -1.703125 -0.859375 -2.46875q-0.84375 -0.765625 -2.609375 -0.765625q-2.875 0 -5.265625 1.671875l-1.25 -3.296875q2.875 -1.9375 6.9375 -1.9375q1.375 0 2.4375 0.234375q1.0625 0.21875 2.1875 0.875q1.125 0.65625 1.75 2.078125q0.625 1.421875 0.625 3.53125l0 11.40625l-3.953125 0zm-3.953125 -3.15625q2.328125 0 3.953125 -1.703125l0 -2.28125q-1.53125 -0.71875 -3.53125 -0.71875q-1.640625 0 -2.640625 0.59375q-1.0 0.578125 -1.0 1.796875q0 1.0625 0.828125 1.6875q0.828125 0.625 2.390625 0.625zm16.52826 -17.6875q-0.6875 0.703125 -1.703125 0.703125q-1.0 0 -1.71875 -0.703125q-0.703125 -0.71875 -0.703125 -1.71875q0 -1.0 0.703125 -1.6875q0.71875 -0.703125 1.71875 -0.703125q1.015625 0 1.703125 0.703125q0.6875 0.6875 0.6875 1.6875q0 1.0 -0.6875 1.71875zm-3.734375 20.84375l0 -17.703125l4.046875 0l0 17.703125l-4.046875 0zm20.22882 0l0 -10.15625q0 -4.125 -3.28125 -4.125q-3.609375 0 -3.609375 4.0625l0 10.21875l-4.0625 0l0 -17.703125l4.0625 0l0 1.65625q1.734375 -2.078125 4.671875 -2.078125q2.78125 0 4.53125 1.734375q1.75 1.734375 1.75 5.515625l0 10.875l-4.0625 0zm10.919006 6.71875l2.734375 -7.0l-6.65625 -17.421875l4.09375 0l4.125 10.875q0.3125 0.765625 0.515625 1.59375q0.171875 -0.765625 0.484375 -1.59375l4.171875 -10.875l4.078125 0l-9.359375 24.421875l-4.1875 0z" fill-rule="nonzero"/><path fill="#000000" d="m119.98949 117.978195l-20.305885 5.2616043l5.880867 -11.690971l0 0c-39.220383 -15.293289 -74.969734 -12.011681 -84.93376 7.7964783l0 0c9.9640255 -19.808159 45.713375 -23.089767 84.93376 -7.7964783l5.880867 -11.690971z" fill-rule="evenodd"/><path fill="#000000" d="m20.63071 119.34531l0 0c-11.38735 22.637695 14.634548 58.72856 58.121532 80.611206l0 0l0 0c-43.486984 -21.882645 -69.50888 -57.97351 -58.121532 -80.611206z" fill-rule="evenodd"/><path fill="#000000" fill-opacity="0.0" d="m20.63071 119.34531l0 0c-11.38735 22.637695 14.634548 58.72856 58.121532 80.611206l0 0l0 0c-43.486984 -21.882645 -69.50888 -57.97351 -58.121532 -80.611206l0 0l0 0c9.9640255 -19.808159 45.713375 -23.089767 84.93376 -7.7964783l5.880867 -11.690971l8.544151 18.120338l-20.305885 5.2616043l5.880867 -11.690971l0 0c-39.220383 -15.293289 -74.969734 -12.011681 -84.93376 7.7964783" fill-rule="evenodd"/><path stroke="#000000" stroke-width="2.0" stroke-linejoin="round" stroke-linecap="butt" d="m20.63071 119.34531l0 0c-11.38735 22.637695 14.634548 58.72856 58.121532 80.611206l0 0l0 0c-43.486984 -21.882645 -69.50888 -57.97351 -58.121532 -80.611206l0 0l0 0c9.9640255 -19.808159 45.713375 -23.089767 84.93376 -7.7964783l5.880867 -11.690971l8.544151 18.120338l-20.305885 5.2616043l5.880867 -11.690971l0 0c-39.220383 -15.293289 -74.969734 -12.011681 -84.93376 7.7964783" fill-rule="evenodd"/><path fill="#000000" d="m640.8079 275.85812l20.92511 1.3798828l-9.251587 9.251617l0 0c32.42639 26.829102 67.3916 34.93335 83.0708 19.25415l0 0c-15.679199 15.679199 -50.64441 7.574951 -83.0708 -19.25415l-9.251587 9.251587z" fill-rule="evenodd"/><path fill="#000000" d="m735.55225 305.74377l0 0c17.918884 -17.918915 4.5527344 -60.351486 -29.854187 -94.77579l0 0l0 0c34.40692 34.4243 47.77307 76.85687 29.854187 94.77579z" fill-rule="evenodd"/><path fill="#000000" fill-opacity="0.0" d="m735.55225 305.74377l0 0c17.918884 -17.918915 4.5527344 -60.351486 -29.854187 -94.77579l0 0l0 0c34.40692 34.4243 47.77307 76.85687 29.854187 94.77579l0 0l0 0c-15.679199 15.679199 -50.64441 7.574951 -83.0708 -19.25415l-9.251587 9.251587l-2.421936 -19.883087l20.92511 1.3798828l-9.251587 9.251617l0 0c32.42639 26.829102 67.3916 34.93335 83.0708 19.25415" fill-rule="evenodd"/><path stroke="#000000" stroke-width="2.0" stroke-linejoin="round" stroke-linecap="butt" d="m735.55225 305.74377l0 0c17.918884 -17.918915 4.5527344 -60.351486 -29.854187 -94.77579l0 0l0 0c34.40692 34.4243 47.77307 76.85687 29.854187 94.77579l0 0l0 0c-15.679199 15.679199 -50.64441 7.574951 -83.0708 -19.25415l-9.251587 9.251587l-2.421936 -19.883087l20.92511 1.3798828l-9.251587 9.251617l0 0c32.42639 26.829102 67.3916 34.93335 83.0708 19.25415" fill-rule="evenodd"/><path fill="#000000" d="m559.8028 133.21074l-14.901184 -14.801498l11.562866 0l0 0c-15.632507 -34.2325 -82.75958 -58.804806 -160.64407 -58.804806l0 0c77.88449 0 145.01157 24.572308 160.64407 58.804806l11.562805 0z" fill-rule="evenodd"/><path fill="#000000" d="m395.8204 59.604435l0 0c-90.59973 0 -164.07356 32.954662 -164.10835 73.60631l0 0l0 0c0.016708374 -19.521606 17.31604 -38.24366 48.09233 -52.047516c30.776276 -13.803864 72.508484 -21.558788 116.01602 -21.558788z" fill-rule="evenodd"/><path fill="#000000" fill-opacity="0.0" d="m395.8204 59.604435l0 0c-90.59973 0 -164.07356 32.954662 -164.10835 73.60631l0 0l0 0c0.016708374 -19.521606 17.31604 -38.24366 48.09233 -52.047516c30.776276 -13.803864 72.508484 -21.558788 116.01602 -21.558788l0 0l0 0c77.88449 0 145.01157 24.572308 160.64407 58.804806l11.562805 0l-8.224487 14.801498l-14.901184 -14.801498l11.562866 0l0 0c-15.632507 -34.2325 -82.75958 -58.804806 -160.64407 -58.804806" fill-rule="evenodd"/><path stroke="#000000" stroke-width="2.0" stroke-linejoin="round" stroke-linecap="butt" d="m395.8204 59.604435l0 0c-90.59973 0 -164.07356 32.954662 -164.10835 73.60631l0 0l0 0c0.016708374 -19.521606 17.31604 -38.24366 48.09233 -52.047516c30.776276 -13.803864 72.508484 -21.558788 116.01602 -21.558788l0 0l0 0c77.88449 0 145.01157 24.572308 160.64407 58.804806l11.562805 0l-8.224487 14.801498l-14.901184 -14.801498l11.562866 0l0 0c-15.632507 -34.2325 -82.75958 -58.804806 -160.64407 -58.804806" fill-rule="evenodd"/><path fill="#000000" d="m232.62958 250.20143l14.901138 14.801498l-11.56282 0l0 0c15.632492 34.232483 82.75958 58.80481 160.64404 58.80481l0 0c-77.88446 0 -145.01155 -24.572327 -160.64404 -58.80481l-11.56282 0z" fill-rule="evenodd"/><path fill="#000000" d="m396.61194 323.80774l0 0c90.59976 0 164.07355 -32.95468 164.10834 -73.60631l0 0l0 0c-0.016662598 19.521622 -17.31604 38.243668 -48.092285 52.04753c-30.776306 13.803833 -72.508514 21.558777 -116.01605 21.558777z" fill-rule="evenodd"/><path fill="#000000" fill-opacity="0.0" d="m396.61194 323.80774l0 0c90.59976 0 164.07355 -32.95468 164.10834 -73.60631l0 0l0 0c-0.016662598 19.521622 -17.31604 38.243668 -48.092285 52.04753c-30.776306 13.803833 -72.508514 21.558777 -116.01605 21.558777l0 0l0 0c-77.88446 0 -145.01155 -24.572327 -160.64404 -58.80481l-11.56282 0l8.224503 -14.801498l14.901138 14.801498l-11.56282 0l0 0c15.632492 34.232483 82.75958 58.80481 160.64404 58.80481" fill-rule="evenodd"/><path stroke="#000000" stroke-width="2.0" stroke-linejoin="round" stroke-linecap="butt" d="m396.61194 323.80774l0 0c90.59976 0 164.07355 -32.95468 164.10834 -73.60631l0 0l0 0c-0.016662598 19.521622 -17.31604 38.243668 -48.092285 52.04753c-30.776306 13.803833 -72.508514 21.558777 -116.01605 21.558777l0 0l0 0c-77.88446 0 -145.01155 -24.572327 -160.64404 -58.80481l-11.56282 0l8.224503 -14.801498l14.901138 14.801498l-11.56282 0l0 0c15.632492 34.232483 82.75958 58.80481 160.64404 58.80481" fill-rule="evenodd"/><path fill="#000000" fill-opacity="0.0" d="m11.576545 59.582764l80.72441 0l0 41.16535l-80.72441 0z" fill-rule="evenodd"/><path fill="#000000" d="m27.281057 90.82544q0.0625 -5.1875 1.46875 -9.515625q1.40625 -4.328125 4.640627 -8.640625l-10.203127 0l0 -2.375l13.046877 0l0 2.3125q-1.84375 2.125 -3.15625 4.625q-1.2968769 2.5 -1.9531269 4.96875q-0.640625 2.46875 -0.9375 4.53125q-0.28125 2.0625 -0.28125 4.09375l-2.625 0zm19.574892 0.359375q-1.96875 0 -3.4375 -0.921875q-1.46875 -0.9375 -2.25 -2.5q-0.765625 -1.578125 -1.140625 -3.359375q-0.359375 -1.796875 -0.359375 -3.84375q0 -1.875 0.3125 -3.59375q0.328125 -1.71875 1.09375 -3.375q0.765625 -1.65625 2.234375 -2.640625q1.484375 -1.0 3.546875 -1.0q1.953125 0 3.421875 0.921875q1.46875 0.921875 2.25 2.515625q0.78125 1.578125 1.140625 3.375q0.375 1.78125 0.375 3.796875q0 1.875 -0.34375 3.59375q-0.34375 1.71875 -1.109375 3.375q-0.75 1.65625 -2.234375 2.65625q-1.484375 1.0 -3.5 1.0zm0 -2.40625q1.3125 0 2.25 -0.734375q0.9375 -0.734375 1.390625 -2.015625q0.453125 -1.296875 0.640625 -2.59375q0.203125 -1.3125 0.203125 -2.875q0 -1.640625 -0.203125 -3.015625q-0.203125 -1.375 -0.6875 -2.59375q-0.484375 -1.21875 -1.40625 -1.921875q-0.90625 -0.703125 -2.1875 -0.703125q-1.359375 0 -2.296875 0.75q-0.9375 0.734375 -1.40625 2.015625q-0.46875 1.28125 -0.65625 2.609375q-0.1875 1.328125 -0.1875 2.859375q0 1.640625 0.203125 3.015625q0.203125 1.359375 0.703125 2.59375q0.5 1.21875 1.421875 1.921875q0.921875 0.6875 2.21875 0.6875zm15.600037 -8.390625q-2.40625 0 -3.5625 -1.546875q-1.15625 -1.5625 -1.15625 -3.671875q0 -2.03125 1.171875 -3.625q1.171875 -1.59375 3.546875 -1.59375q2.375 0 3.53125 1.546875q1.15625 1.53125 1.15625 3.671875q0 1.25 -0.40625 2.375q-0.40625 1.109375 -1.53125 1.984375q-1.109375 0.859375 -2.75 0.859375zm0.734375 10.796875l-2.46875 0l14.015625 -21.234375l2.46875 0l-14.015625 21.234375zm-0.734375 -12.828125q1.203125 0 1.859375 -0.921875q0.65625 -0.921875 0.65625 -2.265625q0 -1.46875 -0.640625 -2.328125q-0.640625 -0.875 -1.875 -0.875q-1.265625 0 -1.90625 0.90625q-0.625 0.890625 -0.625 2.296875q0 1.4375 0.625 2.3125q0.640625 0.875 1.90625 0.875zm13.015625 12.828125q-2.375 0 -3.53125 -1.546875q-1.15625 -1.5625 -1.15625 -3.6875q0 -1.984375 1.15625 -3.59375q1.15625 -1.625 3.53125 -1.625q2.40625 0 3.5625 1.546875q1.15625 1.53125 1.15625 3.671875q0 1.265625 -0.40625 2.390625q-0.40625 1.109375 -1.53125 1.984375q-1.109375 0.859375 -2.78125 0.859375zm-1.875 -2.90625q0.640625 0.875 1.875 0.875q1.234375 0 1.875 -0.90625q0.65625 -0.90625 0.65625 -2.296875q0 -1.453125 -0.65625 -2.3125q-0.640625 -0.875 -1.875 -0.875q-1.234375 0 -1.875 0.890625q-0.640625 0.890625 -0.640625 2.296875q0 1.4375 0.640625 2.328125z" fill-rule="nonzero"/><path fill="#000000" fill-opacity="0.0" d="m664.9236 313.82166l80.724365 0l0 41.165344l-80.724365 0z" fill-rule="evenodd"/><path fill="#000000" d="m685.2857 345.06433l0 -5.109375l-10.5 0l0 -1.515625l10.640625 -13.90625l2.40625 0l0 13.140625l2.90625 0l0 2.28125l-2.90625 0l0 5.109375l-2.546875 0zm0 -7.390625l0 -9.53125l-7.15625 9.53125l7.15625 0zm16.369019 7.75q-1.96875 0 -3.4375 -0.921875q-1.46875 -0.9375 -2.25 -2.5q-0.765625 -1.578125 -1.140625 -3.359375q-0.359375 -1.796875 -0.359375 -3.84375q0 -1.875 0.3125 -3.59375q0.328125 -1.71875 1.09375 -3.375q0.765625 -1.65625 2.234375 -2.640625q1.484375 -1.0 3.546875 -1.0q1.953125 0 3.421875 0.921875q1.46875 0.921875 2.25 2.515625q0.78125 1.578125 1.140625 3.375q0.375 1.78125 0.375 3.796875q0 1.875 -0.34375 3.59375q-0.34375 1.71875 -1.109375 3.375q-0.75 1.65625 -2.234375 2.65625q-1.484375 1.0 -3.5 1.0zm0 -2.40625q1.3125 0 2.25 -0.734375q0.9375 -0.734375 1.390625 -2.015625q0.453125 -1.296875 0.640625 -2.59375q0.203125 -1.3125 0.203125 -2.875q0 -1.640625 -0.203125 -3.015625q-0.203125 -1.375 -0.6875 -2.59375q-0.484375 -1.21875 -1.40625 -1.921875q-0.90625 -0.703125 -2.1875 -0.703125q-1.359375 0 -2.296875 0.75q-0.9375 0.734375 -1.40625 2.015625q-0.46875 1.28125 -0.65625 2.609375q-0.1875 1.328125 -0.1875 2.859375q0 1.640625 0.203125 3.015625q0.203125 1.359375 0.703125 2.59375q0.5 1.21875 1.421875 1.921875q0.921875 0.6875 2.21875 0.6875zm15.600037 -8.390625q-2.40625 0 -3.5625 -1.546875q-1.15625 -1.5625 -1.15625 -3.671875q0 -2.03125 1.171875 -3.625q1.171875 -1.59375 3.546875 -1.59375q2.375 0 3.53125 1.546875q1.15625 1.53125 1.15625 3.671875q0 1.25 -0.40625 2.375q-0.40625 1.109375 -1.53125 1.984375q-1.109375 0.859375 -2.75 0.859375zm0.734375 10.796875l-2.46875 0l14.015625 -21.234375l2.46875 0l-14.015625 21.234375zm-0.734375 -12.828125q1.203125 0 1.859375 -0.921875q0.65625 -0.921875 0.65625 -2.265625q0 -1.46875 -0.640625 -2.328125q-0.640625 -0.875 -1.875 -0.875q-1.265625 0 -1.90625 0.90625q-0.625 0.890625 -0.625 2.296875q0 1.4375 0.625 2.3125q0.640625 0.875 1.90625 0.875zm13.015625 12.828125q-2.375 0 -3.53125 -1.546875q-1.15625 -1.5625 -1.15625 -3.6875q0 -1.984375 1.15625 -3.59375q1.15625 -1.625 3.53125 -1.625q2.40625 0 3.5625 1.546875q1.15625 1.53125 1.15625 3.671875q0 1.265625 -0.40625 2.390625q-0.40625 1.109375 -1.53125 1.984375q-1.109375 0.859375 -2.78125 0.859375zm-1.875 -2.90625q0.640625 0.875 1.875 0.875q1.234375 0 1.875 -0.90625q0.65625 -0.90625 0.65625 -2.296875q0 -1.453125 -0.65625 -2.3125q-0.640625 -0.875 -1.875 -0.875q-1.234375 0 -1.875 0.890625q-0.640625 0.890625 -0.640625 2.296875q0 1.4375 0.640625 2.328125z" fill-rule="nonzero"/><path fill="#000000" fill-opacity="0.0" d="m355.03812 10.216043l80.724396 0l0 41.16535l-80.724396 0z" fill-rule="evenodd"/><path fill="#000000" d="m372.97574 41.818096q-5.1875 0 -7.0 -4.78125l2.375 -0.96875q1.375 3.3125 4.625 3.3125q1.9375 0 3.171875 -0.9375q1.234375 -0.9375 1.234375 -2.734375q0 -1.703125 -1.09375 -2.703125q-1.078125 -1.015625 -3.15625 -1.015625l-1.46875 0l0 -2.40625l1.3125 0q1.609375 0 2.609375 -0.890625q1.0 -0.90625 1.0 -2.375q0 -1.515625 -0.984375 -2.421875q-0.984375 -0.921875 -2.53125 -0.921875q-2.78125 0 -4.078125 2.765625l-2.375 -0.90625q0.734375 -1.875 2.390625 -3.0625q1.65625 -1.1875 4.0625 -1.1875q2.671875 0 4.421875 1.5625q1.765625 1.546875 1.765625 3.890625q0 1.40625 -0.6875 2.609375q-0.6875 1.203125 -1.953125 1.84375q1.609375 0.640625 2.515625 1.96875q0.921875 1.3125 0.921875 3.15625q0 2.796875 -2.03125 4.5q-2.015625 1.703125 -5.046875 1.703125zm18.514893 0q-1.96875 0 -3.4375 -0.921875q-1.46875 -0.9375 -2.25 -2.5q-0.765625 -1.578125 -1.140625 -3.359375q-0.359375 -1.796875 -0.359375 -3.84375q0 -1.875 0.3125 -3.59375q0.328125 -1.71875 1.09375 -3.375q0.765625 -1.65625 2.234375 -2.640625q1.484375 -1.0 3.546875 -1.0q1.953125 0 3.421875 0.921875q1.46875 0.921875 2.25 2.515625q0.78125 1.578125 1.140625 3.375q0.375 1.78125 0.375 3.796875q0 1.875 -0.34375 3.59375q-0.34375 1.71875 -1.109375 3.375q-0.75 1.65625 -2.234375 2.65625q-1.484375 1.0 -3.5 1.0zm0 -2.40625q1.3125 0 2.25 -0.734375q0.9375 -0.734375 1.390625 -2.015625q0.453125 -1.296875 0.640625 -2.59375q0.203125 -1.3125 0.203125 -2.875q0 -1.640625 -0.203125 -3.015625q-0.203125 -1.375 -0.6875 -2.59375q-0.484375 -1.21875 -1.40625 -1.921875q-0.90625 -0.703125 -2.1875 -0.703125q-1.359375 0 -2.296875 0.75q-0.9375 0.734375 -1.40625 2.015625q-0.46875 1.28125 -0.65625 2.609375q-0.1875 1.328125 -0.1875 2.859375q0 1.640625 0.203125 3.015625q0.203125 1.359375 0.703125 2.59375q0.5 1.21875 1.421875 1.921875q0.921875 0.6875 2.21875 0.6875zm15.600037 -8.390625q-2.40625 0 -3.5625 -1.546875q-1.15625 -1.5625 -1.15625 -3.671875q0 -2.03125 1.171875 -3.625q1.171875 -1.59375 3.546875 -1.59375q2.375 0 3.53125 1.546875q1.15625 1.53125 1.15625 3.671875q0 1.25 -0.40625 2.375q-0.40625 1.109375 -1.53125 1.984375q-1.109375 0.859375 -2.75 0.859375zm0.734375 10.796875l-2.46875 0l14.015625 -21.234375l2.46875 0l-14.015625 21.234375zm-0.734375 -12.828125q1.203125 0 1.859375 -0.921875q0.65625 -0.921875 0.65625 -2.265625q0 -1.46875 -0.640625 -2.328125q-0.640625 -0.875 -1.875 -0.875q-1.265625 0 -1.90625 0.90625q-0.625 0.890625 -0.625 2.296875q0 1.4375 0.625 2.3125q0.640625 0.875 1.90625 0.875zm13.015625 12.828125q-2.375 0 -3.53125 -1.546875q-1.15625 -1.5625 -1.15625 -3.6875q0 -1.984375 1.15625 -3.59375q1.15625 -1.625 3.53125 -1.625q2.40625 0 3.5625 1.546875q1.15625 1.53125 1.15625 3.671875q0 1.265625 -0.40625 2.390625q-0.40625 1.109375 -1.53125 1.984375q-1.109375 0.859375 -2.78125 0.859375zm-1.875 -2.90625q0.640625 0.875 1.875 0.875q1.234375 0 1.875 -0.90625q0.65625 -0.90625 0.65625 -2.296875q0 -1.453125 -0.65625 -2.3125q-0.640625 -0.875 -1.875 -0.875q-1.234375 0 -1.875 0.890625q-0.640625 0.890625 -0.640625 2.296875q0 1.4375 0.640625 2.328125z" fill-rule="nonzero"/><path fill="#000000" fill-opacity="0.0" d="m361.20825 332.6186l80.724396 0l0 41.165375l-80.724396 0z" fill-rule="evenodd"/><path fill="#000000" d="m379.54733 364.22064q-3.34375 0 -5.15625 -2.21875q-1.796875 -2.21875 -1.796875 -5.734375q0 -4.875 2.921875 -8.5625q2.921875 -3.703125 7.921875 -4.71875l0 2.25q-2.78125 0.640625 -4.96875 2.6875q-2.171875 2.03125 -2.796875 4.796875q1.46875 -1.671875 4.484375 -1.671875q2.640625 0 4.421875 1.875q1.796875 1.875 1.796875 4.578125q0 2.90625 -1.953125 4.8125q-1.9375 1.90625 -4.875 1.90625zm-0.03125 -2.40625q1.90625 0 3.109375 -1.140625q1.203125 -1.15625 1.203125 -3.03125q0 -1.90625 -1.1875 -3.0625q-1.1875 -1.15625 -3.125 -1.15625q-1.90625 0 -3.125 1.15625q-1.21875 1.15625 -1.21875 3.0625q0 1.84375 1.234375 3.015625q1.234375 1.15625 3.109375 1.15625zm18.07138 2.40625q-1.96875 0 -3.4375 -0.921875q-1.46875 -0.9375 -2.25 -2.5q-0.765625 -1.578125 -1.140625 -3.359375q-0.359375 -1.796875 -0.359375 -3.84375q0 -1.875 0.3125 -3.59375q0.328125 -1.71875 1.09375 -3.375q0.765625 -1.65625 2.234375 -2.640625q1.484375 -1.0 3.546875 -1.0q1.953125 0 3.421875 0.921875q1.46875 0.921875 2.25 2.515625q0.78125 1.578125 1.140625 3.375q0.375 1.78125 0.375 3.796875q0 1.875 -0.34375 3.59375q-0.34375 1.71875 -1.109375 3.375q-0.75 1.65625 -2.234375 2.65625q-1.484375 1.0 -3.5 1.0zm0 -2.40625q1.3125 0 2.25 -0.734375q0.9375 -0.734375 1.390625 -2.015625q0.453125 -1.296875 0.640625 -2.59375q0.203125 -1.3125 0.203125 -2.875q0 -1.640625 -0.203125 -3.015625q-0.203125 -1.375 -0.6875 -2.59375q-0.484375 -1.21875 -1.40625 -1.921875q-0.90625 -0.703125 -2.1875 -0.703125q-1.359375 0 -2.296875 0.75q-0.9375 0.734375 -1.40625 2.015625q-0.46875 1.28125 -0.65625 2.609375q-0.1875 1.328125 -0.1875 2.859375q0 1.640625 0.203125 3.015625q0.203125 1.359375 0.703125 2.59375q0.5 1.21875 1.421875 1.921875q0.921875 0.6875 2.21875 0.6875zm15.600037 -8.390625q-2.40625 0 -3.5625 -1.546875q-1.15625 -1.5625 -1.15625 -3.671875q0 -2.03125 1.171875 -3.625q1.171875 -1.59375 3.546875 -1.59375q2.375 0 3.53125 1.546875q1.15625 1.53125 1.15625 3.671875q0 1.25 -0.40625 2.375q-0.40625 1.109375 -1.53125 1.984375q-1.109375 0.859375 -2.75 0.859375zm0.734375 10.796875l-2.46875 0l14.015625 -21.234375l2.46875 0l-14.015625 21.234375zm-0.734375 -12.828125q1.203125 0 1.859375 -0.921875q0.65625 -0.921875 0.65625 -2.265625q0 -1.46875 -0.640625 -2.328125q-0.640625 -0.875 -1.875 -0.875q-1.265625 0 -1.90625 0.90625q-0.625 0.890625 -0.625 2.296875q0 1.4375 0.625 2.3125q0.640625 0.875 1.90625 0.875zm13.015625 12.828125q-2.375 0 -3.53125 -1.546875q-1.15625 -1.5625 -1.15625 -3.6875q0 -1.984375 1.15625 -3.59375q1.15625 -1.625 3.53125 -1.625q2.40625 0 3.5625 1.546875q1.15625 1.53125 1.15625 3.671875q0 1.265625 -0.40625 2.390625q-0.40625 1.109375 -1.53125 1.984375q-1.109375 0.859375 -2.78125 0.859375zm-1.875 -2.90625q0.640625 0.875 1.875 0.875q1.234375 0 1.875 -0.90625q0.65625 -0.90625 0.65625 -2.296875q0 -1.453125 -0.65625 -2.3125q-0.640625 -0.875 -1.875 -0.875q-1.234375 0 -1.875 0.890625q-0.640625 0.890625 -0.640625 2.296875q0 1.4375 0.640625 2.328125z" fill-rule="nonzero"/></g></svg>