<?xml version="1.0" standalone="yes"?>
<svg version="1.1" viewBox="0.0 0.0 700.0 350.0" xmlns="http://www.w3.org/2000/svg" xmlns:xlink="http://www.w3.org/1999/xlink"><g transform="translate(350, 350)"><path style="fill: rgb(102, 119, 255);" d="M-320,-3.9188697572715304e-14A320,320,0,0,1,-17.586249758207874,-319.5163905333214L-5.495703049439961,-99.84887204166293A100,100,0,0,0,-100,-1.2246467991473532e-14Z"></path><path style="fill: rgb(119, 153, 255);" d="M-130.16440510531882,-292.3306820085405A320,320,0,0,1,-17.586249758207874,-319.5163905333214L-5.495703049439961,-99.84887204166293A100,100,0,0,0,-40.67637659541214,-91.35333812766892Z"></path><path style="fill: url(&quot;#crosshatch&quot;); opacity: 0.25;" d="M-54.04948097226519,-315.4023677885579A320,320,0,0,1,-17.586249758207874,-319.5163905333214L-5.495703049439961,-99.84887204166293A100,100,0,0,0,-16.89046280383287,-98.56323993392434Z"></path><path style="fill: rgb(255, 119, 102);" d="M-17.586249758207874,-319.5163905333214A320,320,0,0,1,320,0L100,0A100,100,0,0,0,-5.495703049439961,-99.84887204166293Z"></path><path style="fill: rgb(255, 153, 153);" d="M-17.586249758207874,-319.5163905333214A320,320,0,0,1,97.29544735036883,-304.8501204278778L30.404827296990263,-95.26566263371181A100,100,0,0,0,-5.495703049439961,-99.84887204166293Z"></path><line x1="0" x2="0" stroke-dasharray="7,5" stroke-width="2" stroke="white" y1="-100" y2="-320"></line></g></svg>
